<mxfile host="app.diagrams.net" modified="2022-07-17T23:42:13.699Z" agent="5.0 (Macintosh; Intel Mac OS X 10_15_7) AppleWebKit/537.36 (KHTML, like Gecko) Chrome/103.0.5060.114 Safari/537.36" etag="LtrWQ7srAPcjqPr1sZDn" version="20.1.1" type="github">
  <diagram id="FHZckZIoKIEDhqi4HK1J" name="Page-1">
    <mxGraphModel dx="1186" dy="736" grid="1" gridSize="10" guides="1" tooltips="1" connect="1" arrows="1" fold="1" page="1" pageScale="1" pageWidth="850" pageHeight="1100" math="0" shadow="0">
      <root>
        <mxCell id="0" />
        <mxCell id="1" parent="0" />
        <mxCell id="-DcR6l4cDN4rbOnz7ke2-1" value="" style="rounded=0;whiteSpace=wrap;html=1;fillColor=#f5f5f5;fontColor=#333333;strokeColor=#666666;fillOpacity=50;" vertex="1" parent="1">
          <mxGeometry x="20" y="20" width="430" height="340" as="geometry" />
        </mxCell>
        <mxCell id="kRLWBHvCbc55taYyrKtp-24" value="On Premise" style="rounded=0;whiteSpace=wrap;html=1;verticalAlign=bottom;align=right;" parent="1" vertex="1">
          <mxGeometry x="30" y="220" width="410" height="130" as="geometry" />
        </mxCell>
        <mxCell id="kRLWBHvCbc55taYyrKtp-22" value="Cloud" style="rounded=0;whiteSpace=wrap;html=1;align=right;verticalAlign=bottom;" parent="1" vertex="1">
          <mxGeometry x="30" y="30" width="410" height="180" as="geometry" />
        </mxCell>
        <mxCell id="kRLWBHvCbc55taYyrKtp-17" value="Offers" style="edgeStyle=orthogonalEdgeStyle;rounded=0;orthogonalLoop=1;jettySize=auto;html=1;exitX=1;exitY=0.5;exitDx=0;exitDy=0;" parent="1" source="kRLWBHvCbc55taYyrKtp-4" target="kRLWBHvCbc55taYyrKtp-5" edge="1">
          <mxGeometry relative="1" as="geometry" />
        </mxCell>
        <mxCell id="kRLWBHvCbc55taYyrKtp-4" value="Ordering Service" style="whiteSpace=wrap;html=1;aspect=fixed;fillColor=#dae8fc;strokeColor=#6c8ebf;" parent="1" vertex="1">
          <mxGeometry x="40" y="90" width="80" height="80" as="geometry" />
        </mxCell>
        <mxCell id="kRLWBHvCbc55taYyrKtp-18" style="edgeStyle=orthogonalEdgeStyle;rounded=0;orthogonalLoop=1;jettySize=auto;html=1;exitX=0.5;exitY=1;exitDx=0;exitDy=0;entryX=0.5;entryY=0;entryDx=0;entryDy=0;" parent="1" source="kRLWBHvCbc55taYyrKtp-5" target="kRLWBHvCbc55taYyrKtp-6" edge="1">
          <mxGeometry relative="1" as="geometry" />
        </mxCell>
        <mxCell id="kRLWBHvCbc55taYyrKtp-5" value="Promotions and Discounts Service" style="whiteSpace=wrap;html=1;aspect=fixed;fillColor=#d5e8d4;strokeColor=#82b366;" parent="1" vertex="1">
          <mxGeometry x="195" y="90" width="80" height="80" as="geometry" />
        </mxCell>
        <mxCell id="kRLWBHvCbc55taYyrKtp-6" value="3rd Party Marketing Service" style="whiteSpace=wrap;html=1;aspect=fixed;fillColor=#fff2cc;strokeColor=#d6b656;" parent="1" vertex="1">
          <mxGeometry x="195" y="260" width="80" height="80" as="geometry" />
        </mxCell>
        <mxCell id="kRLWBHvCbc55taYyrKtp-35" style="edgeStyle=orthogonalEdgeStyle;rounded=0;orthogonalLoop=1;jettySize=auto;html=1;exitX=0.5;exitY=1;exitDx=0;exitDy=0;exitPerimeter=0;" parent="1" source="kRLWBHvCbc55taYyrKtp-32" target="kRLWBHvCbc55taYyrKtp-34" edge="1">
          <mxGeometry relative="1" as="geometry" />
        </mxCell>
        <mxCell id="kRLWBHvCbc55taYyrKtp-32" value="EventBridge" style="sketch=0;points=[[0,0,0],[0.25,0,0],[0.5,0,0],[0.75,0,0],[1,0,0],[0,1,0],[0.25,1,0],[0.5,1,0],[0.75,1,0],[1,1,0],[0,0.25,0],[0,0.5,0],[0,0.75,0],[1,0.25,0],[1,0.5,0],[1,0.75,0]];outlineConnect=0;fontColor=#232F3E;gradientColor=#FF4F8B;gradientDirection=north;fillColor=#BC1356;strokeColor=#ffffff;dashed=0;verticalLabelPosition=bottom;verticalAlign=top;align=center;html=1;fontSize=12;fontStyle=0;aspect=fixed;shape=mxgraph.aws4.resourceIcon;resIcon=mxgraph.aws4.eventbridge;" parent="1" vertex="1">
          <mxGeometry x="355" y="40" width="40" height="40" as="geometry" />
        </mxCell>
        <mxCell id="kRLWBHvCbc55taYyrKtp-36" style="edgeStyle=orthogonalEdgeStyle;rounded=0;orthogonalLoop=1;jettySize=auto;html=1;exitX=0;exitY=0.5;exitDx=0;exitDy=0;exitPerimeter=0;" parent="1" source="kRLWBHvCbc55taYyrKtp-34" target="kRLWBHvCbc55taYyrKtp-5" edge="1">
          <mxGeometry relative="1" as="geometry" />
        </mxCell>
        <mxCell id="kRLWBHvCbc55taYyrKtp-34" value="Lambda Function" style="outlineConnect=0;dashed=0;verticalLabelPosition=bottom;verticalAlign=top;align=center;html=1;shape=mxgraph.aws3.lambda;fillColor=#F58534;gradientColor=none;" parent="1" vertex="1">
          <mxGeometry x="355" y="105" width="41.13" height="50" as="geometry" />
        </mxCell>
      </root>
    </mxGraphModel>
  </diagram>
</mxfile>
